# xmcd
#
# Track frame offsets:
#	150
#	15310
#	28671
#	41356
#	59296
#	74558
#	91448
#	107762
#	122146
#	141675
#	155385
#	168499
#	179292
#	195451
#	209662
#	228814
#	243829
#	260429
#	280116
#	296788
#	311338
#
# Disc length: 4385 seconds
# Revision: 0
# Processed by: cddbd v1.5.2PL0 Copyright (c) Steve Scherf et al.
# Submitted via: dBpowerAMP V12.0
#
DISCID=2f111f15
DTITLE=Various Artist - 42 ultimate hits
DYEAR=2004
DGENRE=Country
TTITLE0=Kenny Rogers - Just dropped in [To see what conition my condition was in]
TTITLE1=Kenny Rogers - Ruby don't take your love to town
TTITLE2=Kenny Rogers - Reuben James
TTITLE3=Kenny Rogers - Something's burning
TTITLE4=Kenny Rogers - Tell it all brother
TTITLE5=Kenny Rogers - Love lifted me
TTITLE6=Kenny Rogers - Lucille
TTITLE7=Kenny Rogers - Daytime friends
TTITLE8=Kenny Rogers - Sweet music man
TTITLE9=Kenny Rogers and Dottie West - Every time two fools collide
TTITLE10=Kenny Rogers - Love or something like it
TTITLE11=Kenny Rogers and Dottie West - Anyone who isn't me tonight
TTITLE12=Kenny Rogers - The gambler
TTITLE13=Kenny Rogers and Dottie West - All i ever need is you
TTITLE14=Kenny Rogers - She believes in me
TTITLE15=Kenny Rogers and Dottie West - 'Til i can make it on my own
TTITLE16=Kenny Rogers - You decorated my life
TTITLE17=Kenny Rogers - Coward of the county
TTITLE18=Kenny Rogers and Kim Carnes - Don't fall in love with a dreamer
TTITLE19=Kenny Rogers - Love the world away
TTITLE20=Kenny Rogers - Lady
EXTD=
EXTT0=
EXTT1=
EXTT2=
EXTT3=
EXTT4=
EXTT5=
EXTT6=
EXTT7=
EXTT8=
EXTT9=
EXTT10=
EXTT11=
EXTT12=
EXTT13=
EXTT14=
EXTT15=
EXTT16=
EXTT17=
EXTT18=
EXTT19=
EXTT20=
PLAYORDER=
